<svg version="1.1" id="Layer_1" xmlns="http://www.w3.org/2000/svg" x="0" y="0" viewBox="0 0 256 256" xml:space="preserve"><style>.st1{fill:#fff}</style><linearGradient id="XMLID_3_" gradientUnits="userSpaceOnUse" x1="221.4671" y1="-21.5786" x2="34.5329" y2="277.5786"><stop offset="0" stop-color="#1066b1"/><stop offset="1" stop-color="#7c3b97"/></linearGradient><path id="XMLID_2_" fill="url(#XMLID_3_)" d="M0 0h256v256H0z"/><g id="XMLID_237_"><g id="XMLID_231_"><path id="XMLID_232_" class="st1" d="M175.2 94.7H80.8c-4.6 0-8.3 3.7-8.3 8.3v50c0 4.6 3.7 8.3 8.3 8.3h94.4c4.6 0 8.3-3.7 8.3-8.3v-50c.1-4.6-3.7-8.3-8.3-8.3zm-.4 57.9H81.2v-49.2h93.6v49.2zm42.1-35.7H228V78c0-9.2-7.5-16.7-16.7-16.7H44.7C35.5 61.3 28 68.8 28 78v38.9h11.1c6.1 0 11.1 5 11.1 11.1s-5 11.1-11.1 11.1H28V178c0 9.2 7.5 16.7 16.7 16.7h166.7c9.2 0 16.7-7.5 16.7-16.7v-38.9H217c-6.1 0-11.1-5-11.1-11.1s4.9-11.1 11-11.1zm0 33.3V178c0 3.1-2.5 5.6-5.6 5.6H44.7c-3.1 0-5.6-2.5-5.6-5.6v-27.8c12.3 0 22.2-10 22.2-22.2s-10-22.2-22.2-22.2V78c0-3.1 2.5-5.6 5.6-5.6h166.7c3.1 0 5.6 2.5 5.6 5.6v27.8c-12.3 0-22.2 10-22.2 22.2s9.8 22.2 22.1 22.2z"/></g><g id="XMLID_224_"><path id="XMLID_225_" class="st1" d="M146.9 113.6c.4-.4.4-1 0-1.3l-2.7-2.7c-.4-.4-1-.4-1.3 0l-33.3 33.3c-.4.4-.4 1 0 1.3l2.7 2.7c.4.4 1 .4 1.3 0l30.8-30.8 2.5-2.5zm-30 10.8c1.9 0 3.9-.7 5.4-2.2 3-3 3-7.8 0-10.7-1.5-1.5-3.4-2.2-5.4-2.2s-3.9.7-5.4 2.2c-3 3-3 7.8 0 10.7 1.5 1.5 3.4 2.2 5.4 2.2zm-2.7-10.2c.7-.7 1.7-1.1 2.7-1.1s2 .4 2.7 1.1c1.5 1.5 1.5 3.9 0 5.4-.7.7-1.7 1.1-2.7 1.1s-2-.4-2.7-1.1c-1.5-1.6-1.5-4 0-5.4zm25.4 17.8c-1.9 0-3.9.7-5.4 2.2-3 3-3 7.8 0 10.7 1.5 1.5 3.4 2.2 5.4 2.2s3.9-.7 5.4-2.2c3-3 3-7.8 0-10.7-1.5-1.5-3.5-2.2-5.4-2.2zm2.7 10.2c-.7.7-1.7 1.1-2.7 1.1s-2-.4-2.7-1.1c-1.5-1.5-1.5-3.9 0-5.4.7-.7 1.7-1.1 2.7-1.1 1 0 2 .4 2.7 1.1 1.4 1.6 1.4 4 0 5.4z"/></g></g></svg>